<svg width="1200" height="400" viewBox="0 0 1200 400" fill="none" xmlns="http://www.w3.org/2000/svg">
  <title>XXD Panel 044</title>
  <desc>Lay the decisive source silhouette directly onto one dark flat plane using real high-purity gold material—foil, hammered sheet, pressed metal, or thin cast gold—with restrained sheen, soft reflection, hammer marks, embossed traces, edge lift, folds, and small foil breaks.</desc>
  <defs><clipPath id="f"><rect width="1200" height="400" rx="30"/></clipPath><filter id="s" x="-30%" y="-30%" width="160%" height="160%"><feGaussianBlur stdDeviation="12"/></filter></defs>
  <g clip-path="url(#f)">
    <rect width="1200" height="400" fill="#EEEAE2"/><circle cx="1080" cy="38" r="180" fill="#FFFFFF" fill-opacity=".34"/><circle cx="760" cy="390" r="200" fill="#183A3E" fill-opacity=".1"/>
    <g transform="translate(58 42)"><rect width="224" height="34" rx="8" fill="#172D31"/><text x="16" y="22" fill="white" font-family="Arial,sans-serif" font-size="13" font-weight="900" letter-spacing="2">🦁 XXD / IMAGE SKILL</text><text y="112" fill="#172D31" font-family="Arial,sans-serif" font-size="68" font-weight="900" letter-spacing="-3">PANEL <tspan fill="#D7AE42">044</tspan></text><text x="2" y="151" fill="#183A3E" font-family="Arial,sans-serif" font-size="13" font-weight="900" letter-spacing=".32">THIN GOLD · FRONTAL PLANE · SOURCE-DARK GROUND · HAMMERED TRACE · QUIET ORDER</text><text x="2" y="198" fill="#172D31" font-family="sans-serif" font-size="18" font-weight="800">把源图决定性的形态压进一片克制纯金</text><text x="2" y="230" fill="#3B555A" font-family="sans-serif" font-size="14" font-weight="700">元写真の決定的な形を、抑制された純金の場へ圧す</text><text x="2" y="260" fill="#3B555A" font-family="sans-serif" font-size="14" font-weight="700">원본의 결정적 형태를 절제된 순금 장에 눌러 담기</text><text x="2" y="291" fill="#3B555A" font-family="Arial,sans-serif" font-size="13" font-weight="700">ضغط الشكل الحاسم من المصدر في حقل واحد من الذهب الخالص المتزن</text></g>
    <g transform="translate(58 334)"><rect width="105" height="34" rx="8" fill="#172D31"/><text x="52.5" y="22" text-anchor="middle" fill="white" font-family="Arial,sans-serif" font-size="11" font-weight="900">SOURCE-BOUND</text><rect x="117" width="88" height="34" rx="8" fill="#D7AE42"/><text x="161" y="22" text-anchor="middle" fill="white" font-family="Arial,sans-serif" font-size="11" font-weight="900">4 MODES</text><rect x="217" width="132" height="34" rx="8" fill="#183A3E"/><text x="283" y="22" text-anchor="middle" fill="white" font-family="Arial,sans-serif" font-size="11" font-weight="900">WALLPAPER PACK</text></g>
    <g transform="translate(805 47)"><rect x="17" y="18" width="300" height="275" rx="22" fill="#183A3E"/><path d="M72 228C99 151 126 85 168 62C205 94 224 148 274 207C230 238 126 251 72 228Z" fill="#D7AE42" stroke="#F1D575" stroke-width="4"/><path d="M89 217C125 169 134 111 169 83C198 117 219 165 257 205M117 100C153 127 196 145 229 170M95 198C145 207 197 203 249 187" stroke="#F8E8A1" stroke-opacity=".55" stroke-width="4"/><path d="M130 80L120 151L138 214M188 82L178 153L205 222" stroke="#9E741B" stroke-opacity=".48" stroke-width="3"/><path d="M69 227L80 214M272 207L256 205" stroke="#FFF0B3" stroke-width="3"/></g>
  </g>
</svg>
